<svg xmlns="http://www.w3.org/2000/svg" width="52" height="52" fill="none"><path fill="#7E7E7E" fill-opacity=".3" d="M14 48a2 2 0 1 0 0 4 2 2 0 0 0 0-4ZM2 48a2 2 0 1 0 0 4 2 2 0 0 0 0-4ZM38 36a2 2 0 1 0 0 4 2 2 0 0 0 0-4ZM26 36a2 2 0 1 0 0 4 2 2 0 0 0 0-4ZM14 36a2 2 0 1 0 0 4 2 2 0 0 0 0-4ZM2 36a2 2 0 1 0 0 4 2 2 0 0 0 0-4ZM38 24a2 2 0 1 0 0 4 2 2 0 0 0 0-4ZM26 24a2 2 0 1 0 0 4 2 2 0 0 0 0-4ZM14 24a2 2 0 1 0 0 4 2 2 0 0 0 0-4ZM2 24a2 2 0 1 0 0 4 2 2 0 0 0 0-4ZM50 12a2 2 0 1 0 0 4 2 2 0 0 0 0-4ZM38 12a2 2 0 1 0 0 4 2 2 0 0 0 0-4ZM26 12a2 2 0 1 0 0 4 2 2 0 0 0 0-4ZM14 12a2 2 0 1 0 0 4 2 2 0 0 0 0-4ZM2 12a2 2 0 1 0 0 4 2 2 0 0 0 0-4ZM50 0a2 2 0 1 0 0 4 2 2 0 0 0 0-4ZM38 0a2 2 0 1 0 0 4 2 2 0 0 0 0-4ZM26 0a2 2 0 1 0 0 4 2 2 0 0 0 0-4ZM14 0a2 2 0 1 0 0 4 2 2 0 0 0 0-4ZM2 0a2 2 0 1 0 0 4 2 2 0 0 0 0-4Z"/></svg>