<svg xmlns="http://www.w3.org/2000/svg" width="17" height="16" fill="none"><path fill="#9C9C9C" d="M13.11 4.667c0-.733-.6-1.333-1.333-1.333h-1.333c-.367 0-.667.3-.667.666 0 .367.3.667.667.667h1.333v1.767l-2.32 2.9H7.11V6.667C7.11 6.3 6.81 6 6.444 6H4.443a2.666 2.666 0 0 0-2.667 2.667V10c0 .367.3.667.667.667h.666c0 1.107.894 2 2 2 1.107 0 2-.893 2-2h2.347c.407 0 .787-.187 1.04-.5l2.32-2.9c.193-.24.293-.534.293-.833V4.667Zm-8 6.667a.67.67 0 0 1-.666-.667h1.333c0 .367-.3.667-.667.667Z"/><path fill="#9C9C9C" d="M4.443 4h2c.367 0 .667.3.667.667 0 .366-.3.666-.666.666H4.443a.669.669 0 0 1-.667-.666c0-.367.3-.667.667-.667Zm8.668 4.666c-1.107 0-2 .894-2 2 0 1.107.893 2 2 2s2-.893 2-2c0-1.106-.893-2-2-2Zm0 2.667a.67.67 0 0 1-.667-.667c0-.366.3-.666.667-.666.367 0 .667.3.667.666 0 .367-.3.667-.667.667Z"/></svg>